Coordinates
version=1
nRows=17
nColumns=33
inDegrees=yes

Units are S.I. units (second, meters, Newtons, ...)
Angles are in degrees.

endheader
time	ground_thorax_rot_x	ground_thorax_rot_y	ground_thorax_rot_z	ground_thorax_tx	ground_thorax_ty	ground_thorax_tz	clav_prot_r	clav_elev_r	scapula_abduction_r	scapula_elevation_r	scapula_upward_rot_r	scapula_winging_r	shoulder_elv_r	plane_of_elev_r	axial_rot_r	elbow_flexion_r	pro_sup_r	wrist_flex_r	wrist_dev_r	clav_prot_l	clav_elev_l	scapula_abduction_l	scapula_elevation_l	scapula_upward_rot_l	scapula_winging_l	shoulder_elv_l	plane_of_elev_l	axial_rot_l	elbow_flexion_l	pro_sup_l	wrist_flex_l	wrist_dev_l
      3.73000000	     39.91538986	     -0.34505158	      2.89124857	   -156.43698598	    896.16046088	     -8.27561761	     -2.08794025	     41.37498740	     45.00000000	     45.00000000	     30.71074528	   1324.70490753	   -651.99803033	     18.56354716	   -179.99999979	   1806.92306021	    -52.47364545	     22.72486508	      7.26736037	     13.06941665	    -45.00000000	    -43.23874541	     45.00000000	    -33.55195797	     97.64850560	  -2612.05630071	    141.81900821	    146.73802458	   1093.97019893	   -305.73227033	      3.80953214	    -21.31318891
      3.74000000	     39.82821213	     -0.50361841	      2.42906315	   -153.70216618	    897.79034939	     -8.24271749	     -2.29328197	     41.06808867	     45.00000000	     45.00000000	     32.49006857	   1324.63267675	   -651.64385174	     18.51848689	   -179.99999979	   1806.86909292	    -52.60482085	     22.67202007	      7.34493207	     13.19726740	    -45.00000000	    -43.93339097	     45.00000000	    -31.94882313	     97.77525403	  -2611.91220895	    141.86537067	    147.16179898	   1094.01392248	   -305.88544307	      3.76577373	    -21.28841232
      3.75000000	     39.78197148	     -0.75643169	      1.83618584	   -150.83406105	    899.19573766	     -8.20677277	     -2.52879595	     40.82132867	     45.00000000	     45.00000000	     34.20182436	   1324.52616755	   -651.36888284	     18.59453649	   -179.99999979	   1806.83595503	    -53.05805278	     22.69063144	      7.41788871	     13.29631013	    -45.00000000	    -44.58379878	     45.00000000	    -30.50458513	     97.82738214	  -2611.73681557	    141.77432986	    147.59429690	   1094.01674826	   -306.19546652	      3.78861421	    -21.32835323
      3.76000000	     39.75306992	     -0.61283595	      1.87897614	   -147.83370103	    900.34803320	     -8.16467271	     -1.76391619	     40.83790791	     45.00000000	     45.00000000	     34.07690843	   1324.59229585	   -651.68142134	     18.86038223	   -179.99999979	   1806.69960762	    -53.91447516	     22.83958693	      7.31771826	     13.32070970	    -45.00000000	    -45.00000000	     45.00000000	    -30.01911084	     98.05160119	  -2611.53565065	    141.46611605	    147.79804107	   1093.99696230	   -306.64267126	      3.65628571	    -21.11292292
      3.77000000	     39.75871581	      0.13598113	      2.70302020	   -144.69222683	    901.22242630	     -8.11416547	     -0.96231443	     41.36273863	     45.00000000	     45.00000000	     31.45255675	   1324.66628575	   -652.75235796	     19.73727356	   -179.99999979	   1806.53987018	    -55.13447994	     23.51509836	      6.77295205	     12.81965782	    -45.00000000	    -45.00000000	     45.00000000	    -30.71922310	     98.13348828	  -2611.32305982	    141.20840033	    147.83868986	   1093.98248281	   -307.13110889	      3.55010484	    -20.87292481
      3.78000000	     39.64039144	     -1.39976328	      0.68382419	   -141.40970178	    901.79112615	     -8.05449398	     -4.01912560	     40.17069749	     45.00000000	     45.00000000	     39.00352513	   1324.04154997	   -650.95447199	     19.00506079	   -179.99999979	   1806.91570568	    -56.81642862	     22.96265472	      7.75019590	     12.33185647	    -45.00000000	    -45.00000000	     45.00000000	    -26.72755760	     97.35550397	  -2611.02859395	    141.62514455	    148.59637570	   1093.87446265	   -308.12127347	      4.06455680	    -21.49504223
      3.79000000	     39.60494281	     -1.55502841	      0.38759235	   -137.99193747	    902.02984860	     -7.98602851	     -3.90492497	     39.86377913	     45.00000000	     45.00000000	     40.50418021	   1324.08439018	   -650.80828736	     18.90605426	   -179.99999979	   1806.86819843	    -58.33653979	     22.78379174	      8.01574449	     12.21594862	    -45.00000000	    -45.00000000	     45.00000000	    -25.71852512	     97.00064821	  -2610.85607744	    141.62423111	    149.09757792	   1093.80166849	   -309.40004528	      4.15388163	    -21.51649143
      3.80000000	     39.60424874	     -1.67198674	      0.09511441	   -134.42943945	    901.91960931	     -7.91096180	     -4.36136254	     39.67965152	     45.00000000	     45.00000000	     41.70674047	   1324.02937223	   -650.80636957	     18.98697033	   -179.99999979	   1806.95169963	    -60.33531128	     22.76448765	      8.26657658	     11.79941696	    -45.00000000	    -45.00000000	     45.00000000	    -24.60627778	     96.61723436	  -2610.75630494	    141.61288376	    149.49711720	   1093.61977405	   -311.02385406	      4.40672897	    -21.62959666
      3.81000000	     39.56279704	     -1.92031857	     -0.26893525	   -130.72592646	    901.44596083	     -7.83270587	     -4.39493413	     39.45258896	     45.00000000	     45.00000000	     43.51864695	   1323.86572601	   -650.70939399	     18.96596866	   -179.99999979	   1807.01949370	    -62.91107459	     22.65261652	      8.64056933	     11.61985379	    -45.00000000	    -45.00000000	     45.00000000	    -23.40222733	     96.34743717	  -2610.68814867	    141.49390644	    150.04247121	   1093.42029186	   -313.04727510	      4.66744046	    -21.72739940
      3.82000000	     39.58818227	     -2.02941577	     -0.55270867	   -126.88297255	    900.60108388	     -7.75550665	     -3.83089482	     39.38605155	     45.00000000	     45.00000000	     45.00000000	   1323.82969947	   -650.58281098	     18.86867175	   -179.99999979	   1807.08999250	    -65.89143015	     22.51169205	      9.03405309	     11.53025797	    -45.00000000	    -45.00000000	     45.00000000	    -22.81834274	     95.93663965	  -2610.57899676	    141.30955750	    150.59778078	   1093.24511405	   -315.38545758	      4.95157720	    -21.83955810
      3.83000000	     39.63003306	     -1.84320781	     -0.48250075	   -122.90437743	    899.38417260	     -7.68335150	     -2.81617741	     39.71943019	     45.00000000	     45.00000000	     45.00000000	   1324.08664260	   -650.87733522	     18.74567673	   -179.99999979	   1807.07219828	    -69.04472101	     22.59705539	      9.24113209	     11.66876799	    -45.00000000	    -45.00000000	     45.00000000	    -22.66630997	     95.76677312	  -2610.59479057	    140.85271411	    150.84447707	   1092.91504990	   -317.82692724	      5.23007144	    -21.86206351
      3.84000000	     39.64360968	     -1.91953806	     -0.65918468	   -118.79443929	    897.80149423	     -7.61932730	     -5.49453142	     39.16177830	     45.00000000	     45.00000000	     45.00000000	   1323.62166337	   -651.76783459	     19.25035495	   -179.99999979	   1807.14663694	    -73.04028887	     22.25173064	      9.84581173	     10.69851695	    -45.00000000	    -45.00000000	     45.00000000	    -20.87356316	     95.41689088	  -2610.97660573	    141.05484113	    151.38233389	   1092.56697063	   -321.24393073	      6.14572637	    -22.18554113
      3.85000000	     39.69715242	     -1.52842231	     -0.35059228	   -114.55788121	    895.86365033	     -7.56421567	     -5.06056194	     39.25016925	     45.00000000	     45.00000000	     45.00000000	   1323.73872205	   -652.06325006	     19.05658749	   -179.99999979	   1807.15719501	    -77.25313829	     21.92069687	     10.34292246	     10.62318045	    -45.00000000	    -45.00000000	     45.00000000	    -20.52017282	     94.80169537	  -2611.14723245	    141.33351568	    151.91730729	   1092.35651640	   -324.62549394	      6.62569889	    -22.26536318
      3.86000000	     39.77896095	     -1.61791778	     -0.60014889	   -110.19850749	    893.58601443	     -7.51775995	     -5.80147370	     39.18425663	     45.00000000	     45.00000000	     45.00000000	   1323.60924860	   -652.75932811	     19.28780518	   -179.99999979	   1807.35559888	    -82.26304909	     21.68865398	     10.92870246	     10.22659140	    -45.00000000	    -45.00000000	     45.00000000	    -19.55991943	     94.59218997	  -2611.50942749	    140.98935968	    152.05062294	   1091.89006682	   -328.68929067	      7.52806593	    -22.38209473
      3.87000000	     39.85608241	     -1.07846172	     -0.13406019	   -105.72431767	    890.98599316	     -7.47674340	     -4.87235335	     39.39385378	     45.00000000	     45.00000000	     45.00000000	   1323.84376470	   -652.96680969	     18.90877815	   -179.99999979	   1807.46420604	    -86.82641193	     21.18979082	     11.43934105	     10.34405644	    -45.00000000	    -45.00000000	     45.00000000	    -19.73182521	     93.85405304	  -2611.70705392	    141.30572841	    152.69614837	   1091.71671943	   -332.11288822	      7.95309488	    -22.32457465
      3.88000000	     39.93456253	     -1.15640603	     -0.37114192	   -101.13623908	    888.08039556	     -7.43709724	     -5.91755402	     39.22582888	     45.00000000	     45.00000000	     45.00000000	   1323.54491817	   -653.79892973	     19.21053224	   -179.99999979	   1807.72220038	    -91.93935210	     20.77061421	     12.03583136	      9.94154368	    -45.00000000	    -45.00000000	     45.00000000	    -18.76623629	     93.53868352	  -2612.14104500	    141.02233021	    152.87319384	   1091.27379755	   -335.80053218	      8.85516792	    -22.27855911
      3.89000000	     40.02038784	     -1.05112927	     -0.45350005	    -96.44080134	    884.88719038	     -7.39297181	     -6.19138148	     39.25057690	     45.00000000	     45.00000000	     45.00000000	   1323.43878984	   -654.42457520	     19.19234641	   -179.99999979	   1807.95208858	    -97.39905038	     20.26011549	     12.58194209	      9.69607700	    -45.00000000	    -45.00000000	     45.00000000	    -18.20341418	     93.05664681	  -2612.48320968	    140.91713347	    152.99759400	   1091.01969428	   -339.43111699	      9.58940662	    -22.14854389
